<svg width="202" height="194" viewBox="0 0 202 194" fill="none" xmlns="http://www.w3.org/2000/svg">
<path d="M10 193.044V88.2904C10.1483 67.4754 18.521 47.5633 33.2921 32.897C48.0633 18.2307 68.0344 10 88.85 10C109.666 10 129.637 18.2307 144.408 32.897C159.179 47.5633 167.552 67.4754 167.7 88.2904V98.5204C167.7 107.606 171.309 116.319 177.733 122.743C178.46 123.47 179.217 124.161 180 124.815C186.135 129.938 193.899 132.776 201.956 132.776" stroke="#F2F1F1" stroke-width="20"/>
<path opacity="0.995" d="M54.597 193.044V88.2902C54.597 79.205 58.2061 70.492 64.6302 64.0679C71.0544 57.6437 79.7674 54.0347 88.8525 54.0347C97.9377 54.0347 106.651 57.6437 113.075 64.0679C119.499 70.492 123.108 79.205 123.108 88.2902V98.5182C123.256 119.333 131.629 139.245 146.4 153.912C161.171 168.578 181.142 176.809 201.958 176.809" stroke="#F2F1F1" stroke-width="20"/>
</svg>
