<svg width="27" height="30" viewBox="0 0 27 30" fill="none" xmlns="http://www.w3.org/2000/svg">
<path fill-rule="evenodd" clip-rule="evenodd" d="M16.1236 24.928C16.8167 24.5814 17.5771 24.3901 18.3517 24.3673C19.1263 24.3445 19.8966 24.4908 20.6089 24.796L20.8942 24.9293L24.4382 26.7C24.7427 26.852 24.9775 27.1146 25.0946 27.4341C25.2116 27.7536 25.2021 28.1057 25.068 28.4184C24.9339 28.7311 24.6853 28.9808 24.3731 29.1161C24.061 29.2515 23.7089 29.2624 23.3889 29.1466L23.2462 29.0853L19.7009 27.3133C19.3685 27.1471 19.0049 27.0522 18.6336 27.0348C18.2623 27.0173 17.8915 27.0777 17.5449 27.212L17.3156 27.3133L15.5609 28.192C14.8675 28.5385 14.1069 28.7297 13.332 28.7523C12.5571 28.7749 11.7867 28.6282 11.0742 28.3226L10.7902 28.192L9.03425 27.3133C8.70179 27.1471 8.33825 27.0522 7.96696 27.0348C7.59567 27.0173 7.22483 27.0777 6.87825 27.212L6.64891 27.3133L3.10491 29.0866C2.80045 29.2406 2.44855 29.272 2.12164 29.1744C1.79473 29.0767 1.51769 28.8575 1.34753 28.5618C1.17738 28.266 1.12706 27.9163 1.20693 27.5846C1.28681 27.253 1.4908 26.9645 1.77691 26.7786L1.91291 26.7L5.45691 24.928C6.15006 24.5814 6.91041 24.3901 7.68502 24.3673C8.45964 24.3445 9.22992 24.4908 9.94225 24.796L10.2276 24.9293L11.9822 25.8066C12.3149 25.9731 12.6787 26.068 13.0502 26.0855C13.4217 26.1029 13.7928 26.0425 14.1396 25.908L14.3676 25.8066L16.1236 24.928ZM14.5089 3.89331C14.8625 3.89331 15.2017 4.03379 15.4517 4.28383C15.7018 4.53388 15.8422 4.87302 15.8422 5.22664V6.98664L20.2809 7.72531C20.9033 7.82944 21.4686 8.15092 21.8763 8.63259C22.284 9.11427 22.5077 9.72492 22.5076 10.356V14.932L25.2542 15.8466C25.473 15.9196 25.6742 16.0372 25.8452 16.1919C26.0162 16.3467 26.1532 16.5352 26.2476 16.7456C26.3419 16.956 26.3916 17.1838 26.3934 17.4144C26.3953 17.6449 26.3492 17.8734 26.2582 18.0853L23.3662 24.832L20.8942 23.5946C20.1536 23.2243 19.337 23.0315 18.5089 23.0315C17.6809 23.0315 16.8642 23.2243 16.1236 23.5946L14.3676 24.4733C13.9973 24.6585 13.5889 24.7549 13.1749 24.7549C12.7609 24.7549 12.3526 24.6585 11.9822 24.4733L10.2276 23.5946C9.48697 23.2243 8.67029 23.0315 7.84225 23.0315C7.0142 23.0315 6.19753 23.2243 5.45691 23.5946L3.76358 24.4426L0.219581 18.2413C0.0972463 18.0272 0.023941 17.7886 0.00495042 17.5428C-0.0140402 17.2969 0.021757 17.0499 0.109761 16.8196C0.197766 16.5893 0.335785 16.3813 0.513866 16.2108C0.691948 16.0402 0.905656 15.9113 1.13958 15.8333L3.84225 14.932V10.356C3.84212 9.72492 4.06579 9.11427 4.47349 8.63259C4.8812 8.15092 5.44651 7.82944 6.06891 7.72531L10.5089 6.98664V5.22664C10.5089 4.87302 10.6494 4.53388 10.8994 4.28383C11.1495 4.03379 11.4886 3.89331 11.8422 3.89331H14.5089ZM13.1756 9.24531L6.50891 10.356V14.044L12.3316 12.1026C12.879 11.9202 13.4708 11.9202 14.0182 12.1026L19.8422 14.044V10.356L13.1756 9.24531Z" fill="black"/>
</svg>